<?xml version="1.0" standalone="no"?><!DOCTYPE svg PUBLIC "-//W3C//DTD SVG 1.1//EN" "http://www.w3.org/Graphics/SVG/1.1/DTD/svg11.dtd"><svg t="1610553782429" class="icon" viewBox="0 0 1024 1024" version="1.1" xmlns="http://www.w3.org/2000/svg" p-id="7187" xmlns:xlink="http://www.w3.org/1999/xlink" width="200" height="200"><defs><style type="text/css"></style></defs><path d="M861.6 464.8C807.2 377.6 752.8 306.4 752.8 304c-8-10.4-16.8-14.4-29.6-14.4-10.4 0-19.2 4.8-27.2 12.8-2.4 2.4-54.4 74.4-108.8 160.8C511.2 584.8 473.6 673.6 473.6 728c0 67.2 27.2 128.8 73.6 175.2 46.4 47.2 108.8 74.4 174.4 74.4s128-27.2 174.4-74.4c46.4-47.2 73.6-108.8 73.6-175.2 3.2-55.2-34.4-142.4-108-263.2z m-137.6 448c-100.8 0-182.4-81.6-182.4-183.2 0-24.8 12.8-87.2 103.2-231.2 29.6-47.2 59.2-92 79.2-119.2 19.2 29.6 48.8 72.8 79.2 119.2 88 144 103.2 206.4 103.2 231.2-0.8 101.6-81.6 183.2-182.4 183.2z" fill="#1296db" p-id="7188"></path><path d="M679.2 819.2c-33.6-16.8-54.4-52-54.4-89.6 0-32 14.4-60 40-79.2 10.4-8 12.8-22.4 4.8-32-8-8.8-22.4-12.8-32-4.8-33.6 27.2-56.8 68.8-56.8 114.4 0 54.4 29.6 104 79.2 128.8 2.4 2.4 8 2.4 10.4 2.4 8 0 14.4-4.8 19.2-12.8 5.6-8 1.6-20.8-10.4-27.2z" fill="#1296db" p-id="7189"></path><path d="M519.2 940c-32 10.4-67.2 16.8-103.2 16.8-161.6 0-296-133.6-296-300 0-24.8 8-74.4 48.8-160.8C196 439.2 232 368.8 280 292 332 208 385.6 131.2 418.4 85.6 456 136 521.6 232 584 336.8c10.4 14.4 29.6 20 44 12.8 14.4-10.4 19.2-29.6 12.8-44C549.6 152.8 445.6 14.4 445.6 12.8 439.2 5.6 428.8 0 418.4 0s-19.2 4.8-27.2 12.8c0 0-84 114.4-168 245.6-48.8 79.2-88 148-115.2 210.4-37.6 79.2-54.4 141.6-54.4 188 0 49.6 10.4 96 29.6 141.6 16.8 44 44 81.6 79.2 116.8 33.6 35.2 71.2 60 115.2 79.2s94.4 29.6 140.8 29.6c41.6 0 84-8 123.2-22.4 16.8-8 27.2-24.8 19.2-41.6-6.4-17.6-24.8-26.4-41.6-20z" fill="#1296db" p-id="7190"></path><path d="M278.4 518.4c-10.4-8-24.8-4.8-32 2.4-29.6 40-46.4 87.2-46.4 136 0 41.6 12.8 84 33.6 119.2 22.4 35.2 54.4 62.4 90.4 79.2 2.4 2.4 4.8 2.4 10.4 2.4 8 0 16.8-4.8 19.2-12.8 4.8-12.8 0-24.8-10.4-29.6-60.8-27.2-100.8-89.6-100.8-158.4 0-40 12.8-76.8 37.6-106.4 10.4-8.8 8-24-1.6-32z" fill="#1296db" p-id="7191"></path></svg>