<?xml version="1.0" standalone="no"?><!DOCTYPE svg PUBLIC "-//W3C//DTD SVG 1.1//EN" "http://www.w3.org/Graphics/SVG/1.1/DTD/svg11.dtd"><svg t="1610553408138" class="icon" viewBox="0 0 1024 1024" version="1.1" xmlns="http://www.w3.org/2000/svg" p-id="42227" data-spm-anchor-id="a313x.7781069.0.i44" xmlns:xlink="http://www.w3.org/1999/xlink" width="200" height="200"><defs><style type="text/css"></style></defs><path d="M1024 543.4H559c-36.5 0-47.9-19.7-51.4-31.5-15.7-52.3 63.1-150.2 110.1-181.3 51.6-34.2 110.8-28.5 150.8-21.2 75.6 13.8 254.9 112.6 255.4 216.9l0.1 17.1zM713.4 338c-30.7 0-55.7 6.9-76.9 20.9-43.1 28.5-105 114.6-96.3 143.2 0.5 1.8 2.2 7.3 18.9 7.3h428.6c-20.2-75.9-164-155.4-225.2-166.5-17.9-3.3-34.2-4.9-49.1-4.9z" fill="#1afa29" p-id="42228" data-spm-anchor-id="a313x.7781069.0.i46" class=""></path><path d="M497.1 518.5c-54.2 0-138.2-69.3-166.5-112.2-34.2-51.6-28.4-110.8-21.1-150.8C323.3 179.9 422 0.6 526.4 0.1l17-0.1v465c0 36.5-19.7 47.9-31.4 51.4-4.7 1.4-9.6 2.1-14.9 2.1z m12.4-482.1c-76 20.2-155.4 164-166.6 225.2-9.9 54.4-4.8 94.4 16 126 28.5 43.1 114.4 104.9 143.2 96.3 1.8-0.5 7.3-2.2 7.3-18.9V36.4z" fill="#f4ea2a" p-id="42229" data-spm-anchor-id="a313x.7781069.0.i45" class=""></path><path d="M310.5 720.1c-20.3 0-39.2-2.7-55.1-5.5C179.9 700.7 0.6 601.9 0.1 497.6l-0.1-17h465c36.5 0 47.9 19.7 51.4 31.5 15.7 52.2-63.1 150.2-110.1 181.3-31.1 20.6-65 26.7-95.8 26.7zM36.4 514.6c20.1 75.9 164 155.4 225.1 166.5 54.5 10 94.4 4.8 126-16.1 43.1-28.5 104.9-114.6 96.3-143.2-0.5-1.8-2.2-7.3-18.9-7.3H36.4z" fill="#13227a" p-id="42230" data-spm-anchor-id="a313x.7781069.0.i48" class="selected"></path><path d="M480.6 1024V559c0-36.5 19.7-47.9 31.4-51.4 52.7-15.6 150.2 63.1 181.4 110.1 34.2 51.7 28.5 110.8 21.2 150.8-13.8 75.6-112.6 254.9-216.9 255.4l-17.1 0.1zM528 539.3c-2.3 0-4.3 0.3-6.2 0.8-1.8 0.5-7.3 2.2-7.3 18.9v428.6c76-20.2 155.4-164 166.6-225.2 9.9-54.4 4.8-94.4-16.1-126-26.7-40.4-103.8-97.1-137-97.1z" fill="#1296db" p-id="42231" data-spm-anchor-id="a313x.7781069.0.i47" class=""></path></svg>